<svg xmlns="http://www.w3.org/2000/svg" width="24" height="24" viewBox="0 0 24 24">
  <path d="M2 4.125C2 3.51562 2.46875 3 3.125 3H21.875C22.4844 3 23 3.51562 23 4.125C23 4.78125 22.4844 5.25 21.875 5.25H3.125C2.46875 5.25 2 4.78125 2 4.125ZM2 11.625C2 11.0156 2.46875 10.5 3.125 10.5H21.875C22.4844 10.5 23 11.0156 23 11.625C23 12.2812 22.4844 12.75 21.875 12.75H3.125C2.46875 12.75 2 12.2812 2 11.625ZM21.875 20.25H3.125C2.46875 20.25 2 19.7812 2 19.125C2 18.5156 2.46875 18 3.125 18H21.875C22.4844 18 23 18.5156 23 19.125C23 19.7812 22.4844 20.25 21.875 20.25Z"/>
</svg>