<svg width="24" height="24" viewBox="0 0 24 24" xmlns="http://www.w3.org/2000/svg">
<g id="Frame 10">
<path id="phone" d="M16.875 14.2756C17.6836 14.6272 18.1406 15.5061 17.8945 16.385L17.1562 19.5842C17.0156 20.428 16.2773 20.9905 15.3984 20.9905C6.89062 20.9905 0 14.0999 0 5.59205C0 4.71315 0.5625 3.97486 1.40625 3.79908L4.60547 3.0608C5.48438 2.84986 6.36328 3.3069 6.71484 4.11549L8.22656 7.63111C8.54297 8.3694 8.29688 9.2483 7.69922 9.77565L6.50391 10.7249C7.41797 12.2717 8.71875 13.5725 10.3008 14.4866L11.25 13.3264C11.7773 12.6936 12.6562 12.4475 13.4297 12.7991L16.875 14.2756ZM16.2773 15.9983C16.3125 15.928 16.2773 15.8577 16.207 15.7874L12.7617 14.3108C12.6914 14.2756 12.6211 14.3108 12.5859 14.346L11.1797 16.0686C10.9336 16.385 10.4766 16.4553 10.125 16.2796C7.76953 15.1194 5.83594 13.1858 4.67578 10.8303C4.5 10.4788 4.60547 10.0569 4.88672 9.8108L6.60938 8.40455C6.67969 8.3694 6.67969 8.29908 6.64453 8.22877L5.16797 4.78346C5.13281 4.7483 5.09766 4.67799 5.02734 4.67799L4.99219 4.71315L1.79297 5.45143C1.72266 5.45143 1.65234 5.52174 1.65234 5.59205C1.65234 13.1506 7.83984 19.303 15.3984 19.303C15.4688 19.303 15.5391 19.2327 15.5391 19.1975L16.2773 15.9983Z"/>
</g>
</svg>
