<svg width="20" height="20" viewBox="0 0 20 20" xmlns="http://www.w3.org/2000/svg">
<g id="Frame 1015">
<path id="plus" d="M15.1875 10.25C15.1875 10.7422 14.8008 11.0938 14.3438 11.0938H8.71875V16.7188C8.71875 17.2109 8.33203 17.5977 7.875 17.5977C7.38281 17.5977 7.03125 17.2109 7.03125 16.7188V11.0938H1.40625C0.914062 11.0938 0.5625 10.7422 0.5625 10.2852C0.5625 9.79297 0.914062 9.40625 1.40625 9.40625H7.03125V3.78125C7.03125 3.32422 7.38281 2.97266 7.875 2.97266C8.33203 2.97266 8.71875 3.32422 8.71875 3.78125V9.40625H14.3438C14.8008 9.40625 15.1875 9.79297 15.1875 10.25Z"/>
</g>
</svg>
