<svg xmlns="http://www.w3.org/2000/svg" width="36" height="41" viewBox="0 0 36 41" fill="none">
  <path fill-rule="evenodd" clip-rule="evenodd" d="M23.9922 1.03523C23.5037 1.13021 22.7439 1.34732 22.2961 1.51015C21.8483 1.67298 20.8985 2.09362 20.1929 2.44641C19.4873 2.79921 18.2661 3.51837 17.4791 4.04756C16.6921 4.57676 15.4708 5.51302 14.7653 6.15077C14.0597 6.77495 13.0827 7.73835 12.5942 8.29469C12.1057 8.83745 11.2373 9.93654 10.6403 10.7235C10.0568 11.5106 9.16122 12.8539 8.65917 13.7087C8.14354 14.5636 7.38367 16.0019 6.94946 16.8975C6.52882 17.793 5.90464 19.2314 5.57899 20.0862C5.23976 20.9411 4.81912 22.2573 4.62915 23.0036C4.37134 24.062 4.27635 24.8354 4.22208 26.5315C4.1678 27.9563 4.20851 29.0554 4.31706 29.7203C4.41204 30.2766 4.62915 31.1314 4.79198 31.6199C4.95481 32.1084 5.2669 32.8411 5.47043 33.2482C5.67397 33.6553 6.10818 34.3337 6.42027 34.7408C6.73236 35.1479 7.28869 35.7314 7.65505 36.0299C8.02142 36.3284 8.78129 36.8304 9.33762 37.1425C9.89395 37.4682 11.278 38.0924 12.3907 38.5266C13.5169 38.9744 15.1588 39.5578 16.0543 39.8292C16.9499 40.1006 18.4153 40.4398 19.3109 40.6027C20.6542 40.8333 21.3191 40.8605 23.1102 40.8062C24.6978 40.7519 25.5798 40.6705 26.3668 40.4534C26.9639 40.3041 27.968 39.9106 28.5921 39.5985C29.3249 39.2322 30.0169 38.7437 30.5054 38.2688C30.926 37.8481 31.4416 37.1697 31.6588 36.7083C31.998 36.0163 32.0658 35.7042 32.1065 34.6051C32.1472 33.5739 32.093 33.0583 31.8216 32.027C31.6452 31.3214 31.2381 30.1409 30.926 29.4217C30.6275 28.689 30.0576 27.5221 29.6641 26.8436C29.2706 26.1516 28.4972 24.9711 27.9273 24.2248C27.3709 23.4785 26.4211 22.3794 25.824 21.7688C25.227 21.1717 24.2365 20.2897 23.6259 19.8013C23.0288 19.3263 22.4318 18.9328 22.3097 18.9328C22.1875 18.9328 22.0926 18.96 22.0926 19.0007C22.0926 19.0414 22.4725 19.4349 22.9203 19.8827C23.3816 20.3305 24.0872 21.0903 24.4807 21.5788C24.8742 22.0673 25.2134 22.5151 25.2134 22.5965C25.2134 22.6779 24.5893 22.0673 23.8158 21.2396C23.0424 20.4119 22.079 19.4892 21.6719 19.1771C21.2648 18.865 20.5728 18.3901 20.125 18.1187C19.6773 17.8609 18.8224 17.4809 18.2254 17.2774C17.3705 17.006 16.8549 16.9246 15.7829 16.9246C14.8874 16.911 14.1682 16.9925 13.6797 17.1417C13.2727 17.2638 12.6485 17.5488 12.2957 17.7795L11.6444 18.1865C11.4273 17.5081 11.373 17.0874 11.373 16.8296C11.373 16.5718 11.4951 15.9612 11.6308 15.4727C11.7801 14.9842 12.2007 14.1294 12.5806 13.5731C12.947 13.0167 13.6662 12.1076 14.1682 11.5513C14.6838 11.0085 15.593 10.1808 16.19 9.73301C16.787 9.28523 17.8047 8.66105 18.4696 8.33539C19.1209 8.00974 20.1793 7.57552 20.8442 7.37199C21.9162 7.04633 22.2282 7.00562 24.2636 7.00562C26.0004 6.99205 26.7467 7.04633 27.588 7.24987C28.1851 7.38556 29.162 7.67051 29.7591 7.88761C30.3561 8.10472 31.1431 8.51179 31.5095 8.79674C31.8894 9.06812 32.3779 9.55661 32.595 9.8687C32.8257 10.1808 33.1513 10.6693 33.3277 10.9542C33.4906 11.2392 33.8162 11.5784 34.0333 11.7141C34.264 11.8362 34.6032 11.9448 34.7932 11.9448C34.9967 11.9448 35.2953 11.7819 35.5395 11.5377C35.8516 11.212 35.933 11.0085 35.933 10.5607C35.933 10.1672 35.7973 9.74658 35.5395 9.2988C35.336 8.93243 34.7661 8.26755 34.2912 7.83334C33.8162 7.39913 32.9614 6.81566 32.405 6.53071C31.8487 6.23219 30.9939 5.87939 30.5054 5.73013C30.0169 5.58087 29.0399 5.3909 28.3343 5.29592C27.5066 5.1738 26.5025 5.14666 25.5527 5.20094C24.725 5.25521 23.5444 5.41804 22.9067 5.55373C22.2689 5.70299 21.292 5.98794 20.7356 6.17791C20.1793 6.38145 19.3245 6.74781 18.836 6.99205C18.3475 7.2363 17.3977 7.8062 16.7328 8.25398C16.0679 8.70176 14.9959 9.54304 14.3717 10.1401C13.7476 10.7235 12.7977 11.7819 12.2685 12.4875C11.7258 13.1931 11.0202 14.2651 10.6945 14.8621C10.1789 15.7712 10.0703 15.8934 10.0432 15.6084C10.0161 15.4185 10.1925 14.6857 10.4231 13.9801C10.6538 13.2745 11.088 12.2297 11.3865 11.6734C11.6851 11.1171 12.255 10.2351 12.662 9.70587C13.0555 9.19024 13.829 8.33539 14.3717 7.81977C14.9281 7.29057 15.8915 6.53071 16.5292 6.12363C17.167 5.71656 18.1847 5.14666 18.8088 4.86171C19.4194 4.57676 20.5185 4.16969 21.2377 3.95258C21.9704 3.74904 22.9881 3.49123 23.5173 3.40982C24.0465 3.31483 25.1727 3.19271 26.0276 3.12487C27.2352 3.02988 27.6423 2.94847 27.8323 2.7585C27.968 2.62281 28.0765 2.33786 28.0765 2.10719C28.0765 1.86294 27.9544 1.59156 27.7644 1.41516C27.588 1.25234 27.3166 1.0488 27.1402 0.967384C26.9774 0.88597 26.3939 0.818125 25.8512 0.831694C25.322 0.831694 24.4807 0.926677 23.9922 1.03523ZM14.1954 20.9685C13.829 21.077 13.3405 21.3756 13.0963 21.6198C12.8113 21.8912 12.5942 22.2983 12.4857 22.7325C12.3771 23.126 12.35 23.6416 12.4043 23.9537C12.445 24.2522 12.6214 24.7678 12.7706 25.107C12.9335 25.4463 13.3948 26.0569 13.8155 26.4775C14.2904 26.966 14.9417 27.4274 15.6473 27.7802C16.2443 28.0787 17.1942 28.4993 17.7505 28.6893C18.3068 28.8928 19.7723 29.3677 21.0071 29.7477C22.5404 30.2226 23.5038 30.4397 24.033 30.4533C24.7386 30.4668 24.8607 30.4261 25.1592 30.1005C25.3492 29.8698 25.4849 29.5441 25.4849 29.3135C25.4849 29.0964 25.3899 28.6757 25.2678 28.4043C25.1592 28.1194 24.7928 27.5223 24.4808 27.0746C24.1551 26.6268 23.1103 25.4598 22.1469 24.4693C21.0749 23.3702 20.0301 22.4611 19.4466 22.0811C18.9174 21.7555 18.1304 21.3484 17.6826 21.172C17.2077 20.9956 16.4479 20.8464 15.8508 20.8192C15.1859 20.7785 14.616 20.8328 14.1818 20.9685H14.1954Z" fill="#181D27"/>
  <path d="M3.63861 19.6384C3.16369 20.2219 2.55308 21.0903 2.26813 21.5788C1.98318 22.0673 1.58968 22.8814 1.38614 23.4106C1.1826 23.9398 0.911223 24.7811 0.775532 25.3103C0.639841 25.8395 0.463443 26.8979 0.382029 27.6849C0.287045 28.6619 0.287045 29.5303 0.382029 30.4666C0.463443 31.2129 0.639841 32.2848 0.789101 32.8411C0.924792 33.3975 1.20974 34.2523 1.41328 34.7408C1.63038 35.2293 1.9289 35.8535 2.1053 36.1384C2.2817 36.4098 2.64806 36.8983 2.91945 37.1968C3.2044 37.5089 3.80144 38.0245 4.24922 38.3366C4.69699 38.6623 5.42973 39.0965 5.8775 39.3272C6.32528 39.5443 7.28869 39.9242 8.00785 40.1549C8.74058 40.3856 9.67685 40.6162 10.0975 40.6841C10.6403 40.7519 10.8845 40.7383 11.0066 40.6027C11.1152 40.4851 11.1242 40.3901 11.0338 40.3177C10.9523 40.2499 10.3417 39.9106 9.67685 39.5578C8.99839 39.205 8.00785 38.608 7.45152 38.2145C6.89519 37.8346 6.09461 37.1833 5.68754 36.7762C5.2669 36.3691 4.66986 35.6635 4.37134 35.2157C4.05925 34.768 3.69288 34.1573 3.54362 33.8588C3.38079 33.5603 3.13655 32.9226 2.98729 32.4341C2.83803 31.9456 2.6345 31.0093 2.55308 30.3309C2.43096 29.3946 2.41739 28.7704 2.53951 27.6171C2.6345 26.8029 2.82446 25.541 2.98729 24.8354C3.13655 24.1298 3.47578 22.9357 3.73359 22.1894C3.9914 21.4431 4.39848 20.4661 4.61558 20.0184C4.83269 19.5706 4.99551 19.0821 4.96838 18.9328C4.94124 18.7836 4.83269 18.6479 4.697 18.6208C4.5613 18.5936 4.18137 18.9464 3.63861 19.6384Z" fill="#181D27"/>
</svg>